<mxfile host="app.diagrams.net" modified="2021-09-15T12:00:17.609Z" agent="5.0 (Windows NT 10.0; Win64; x64) AppleWebKit/537.36 (KHTML, like Gecko) Chrome/93.0.4577.63 Safari/537.36" etag="KUwM26uZVqPaICTfmgqJ" version="15.2.5" type="github" pages="5">
  <diagram id="MnBW-IX820_5iDQbOKC2" name="Page-1">
    <mxGraphModel dx="1422" dy="795" grid="0" gridSize="10" guides="1" tooltips="1" connect="1" arrows="1" fold="1" page="1" pageScale="1" pageWidth="827" pageHeight="1169" math="0" shadow="0">
      <root>
        <mxCell id="0" />
        <mxCell id="1" parent="0" />
        <mxCell id="cRK7HzohNTMEYKgJ_gpT-13" value="&lt;font style=&quot;font-size: 20px&quot;&gt;主页&lt;/font&gt;" style="rounded=0;whiteSpace=wrap;html=1;" parent="1" vertex="1">
          <mxGeometry x="210" y="140" width="253" height="427" as="geometry" />
        </mxCell>
        <mxCell id="cRK7HzohNTMEYKgJ_gpT-3" value="xxx开播，拖动N秒进入直播间" style="rounded=1;whiteSpace=wrap;html=1;" parent="1" vertex="1">
          <mxGeometry x="240" y="167" width="166" height="32" as="geometry" />
        </mxCell>
        <mxCell id="cRK7HzohNTMEYKgJ_gpT-11" value="" style="endArrow=classic;html=1;" parent="1" edge="1">
          <mxGeometry width="50" height="50" relative="1" as="geometry">
            <mxPoint x="432" y="169" as="sourcePoint" />
            <mxPoint x="432" y="345" as="targetPoint" />
          </mxGeometry>
        </mxCell>
        <mxCell id="cRK7HzohNTMEYKgJ_gpT-12" value="往下多拖动N秒" style="text;html=1;strokeColor=none;fillColor=none;align=center;verticalAlign=middle;whiteSpace=wrap;rounded=0;" parent="1" vertex="1">
          <mxGeometry x="323" y="263" width="95" height="20" as="geometry" />
        </mxCell>
        <mxCell id="E5jRDPEifIRpLEc2afNd-12" style="edgeStyle=orthogonalEdgeStyle;rounded=0;orthogonalLoop=1;jettySize=auto;html=1;exitX=0;exitY=0.5;exitDx=0;exitDy=0;entryX=1;entryY=0.5;entryDx=0;entryDy=0;" edge="1" parent="1" source="E5jRDPEifIRpLEc2afNd-1" target="E5jRDPEifIRpLEc2afNd-11">
          <mxGeometry relative="1" as="geometry" />
        </mxCell>
        <mxCell id="E5jRDPEifIRpLEc2afNd-1" value="服务器" style="rounded=1;whiteSpace=wrap;html=1;" vertex="1" parent="1">
          <mxGeometry x="1480" y="269" width="120" height="60" as="geometry" />
        </mxCell>
        <mxCell id="E5jRDPEifIRpLEc2afNd-4" value="&lt;font style=&quot;font-size: 20px&quot;&gt;主页&lt;/font&gt;" style="rounded=0;whiteSpace=wrap;html=1;" vertex="1" parent="1">
          <mxGeometry x="886" y="375" width="253" height="357" as="geometry" />
        </mxCell>
        <mxCell id="E5jRDPEifIRpLEc2afNd-5" value="xxx开播，拖动N秒进入直播间" style="rounded=1;whiteSpace=wrap;html=1;" vertex="1" parent="1">
          <mxGeometry x="916" y="402" width="166" height="32" as="geometry" />
        </mxCell>
        <mxCell id="E5jRDPEifIRpLEc2afNd-6" value="" style="endArrow=classic;html=1;" edge="1" parent="1">
          <mxGeometry width="50" height="50" relative="1" as="geometry">
            <mxPoint x="1108" y="431" as="sourcePoint" />
            <mxPoint x="1108" y="580" as="targetPoint" />
          </mxGeometry>
        </mxCell>
        <mxCell id="E5jRDPEifIRpLEc2afNd-7" value="往下多拖动N秒" style="text;html=1;strokeColor=none;fillColor=none;align=center;verticalAlign=middle;whiteSpace=wrap;rounded=0;" vertex="1" parent="1">
          <mxGeometry x="999" y="498" width="95" height="20" as="geometry" />
        </mxCell>
        <mxCell id="E5jRDPEifIRpLEc2afNd-14" style="edgeStyle=orthogonalEdgeStyle;rounded=0;orthogonalLoop=1;jettySize=auto;html=1;exitX=0;exitY=0.5;exitDx=0;exitDy=0;entryX=1;entryY=0.419;entryDx=0;entryDy=0;entryPerimeter=0;" edge="1" parent="1" source="E5jRDPEifIRpLEc2afNd-8" target="E5jRDPEifIRpLEc2afNd-9">
          <mxGeometry relative="1" as="geometry" />
        </mxCell>
        <mxCell id="E5jRDPEifIRpLEc2afNd-8" value="直播间列表" style="rounded=1;whiteSpace=wrap;html=1;" vertex="1" parent="1">
          <mxGeometry x="1227" y="101" width="120" height="60" as="geometry" />
        </mxCell>
        <mxCell id="E5jRDPEifIRpLEc2afNd-9" value="&lt;font style=&quot;font-size: 20px&quot;&gt;直播间&lt;/font&gt;" style="rounded=0;whiteSpace=wrap;html=1;" vertex="1" parent="1">
          <mxGeometry x="886" y="62" width="253" height="313" as="geometry" />
        </mxCell>
        <mxCell id="E5jRDPEifIRpLEc2afNd-13" style="edgeStyle=orthogonalEdgeStyle;rounded=0;orthogonalLoop=1;jettySize=auto;html=1;exitX=0.5;exitY=0;exitDx=0;exitDy=0;" edge="1" parent="1" source="E5jRDPEifIRpLEc2afNd-11" target="E5jRDPEifIRpLEc2afNd-8">
          <mxGeometry relative="1" as="geometry" />
        </mxCell>
        <mxCell id="E5jRDPEifIRpLEc2afNd-20" style="edgeStyle=orthogonalEdgeStyle;rounded=0;orthogonalLoop=1;jettySize=auto;html=1;exitX=0.5;exitY=1;exitDx=0;exitDy=0;entryX=1;entryY=0.5;entryDx=0;entryDy=0;" edge="1" parent="1" source="E5jRDPEifIRpLEc2afNd-11" target="E5jRDPEifIRpLEc2afNd-5">
          <mxGeometry relative="1" as="geometry" />
        </mxCell>
        <mxCell id="E5jRDPEifIRpLEc2afNd-11" value="客户端" style="rounded=1;whiteSpace=wrap;html=1;" vertex="1" parent="1">
          <mxGeometry x="1227" y="269" width="120" height="60" as="geometry" />
        </mxCell>
        <mxCell id="E5jRDPEifIRpLEc2afNd-16" value="" style="endArrow=classic;html=1;" edge="1" parent="1">
          <mxGeometry width="50" height="50" relative="1" as="geometry">
            <mxPoint x="1106" y="221" as="sourcePoint" />
            <mxPoint x="1106" y="86" as="targetPoint" />
          </mxGeometry>
        </mxCell>
        <mxCell id="E5jRDPEifIRpLEc2afNd-17" value="切换直播间" style="text;html=1;strokeColor=none;fillColor=none;align=center;verticalAlign=middle;whiteSpace=wrap;rounded=0;" vertex="1" parent="1">
          <mxGeometry x="1018" y="119" width="80" height="20" as="geometry" />
        </mxCell>
        <mxCell id="E5jRDPEifIRpLEc2afNd-18" value="" style="endArrow=classic;html=1;" edge="1" parent="1">
          <mxGeometry width="50" height="50" relative="1" as="geometry">
            <mxPoint x="1106" y="233" as="sourcePoint" />
            <mxPoint x="1106" y="360" as="targetPoint" />
          </mxGeometry>
        </mxCell>
        <mxCell id="E5jRDPEifIRpLEc2afNd-19" value="回到首页" style="text;html=1;strokeColor=none;fillColor=none;align=center;verticalAlign=middle;whiteSpace=wrap;rounded=0;" vertex="1" parent="1">
          <mxGeometry x="1038" y="281" width="58" height="20" as="geometry" />
        </mxCell>
        <mxCell id="E5jRDPEifIRpLEc2afNd-21" value="推送通知" style="text;html=1;strokeColor=none;fillColor=none;align=center;verticalAlign=middle;whiteSpace=wrap;rounded=0;" vertex="1" parent="1">
          <mxGeometry x="1180" y="392" width="75" height="20" as="geometry" />
        </mxCell>
        <mxCell id="E5jRDPEifIRpLEc2afNd-22" value="关注信息广播" style="text;html=1;strokeColor=none;fillColor=none;align=center;verticalAlign=middle;whiteSpace=wrap;rounded=0;" vertex="1" parent="1">
          <mxGeometry x="1299" y="205" width="67" height="20" as="geometry" />
        </mxCell>
      </root>
    </mxGraphModel>
  </diagram>
  <diagram id="LELYQM63VlBVB2o8YboQ" name="Page-2">
    <mxGraphModel dx="1422" dy="795" grid="0" gridSize="10" guides="1" tooltips="1" connect="1" arrows="1" fold="1" page="1" pageScale="1" pageWidth="827" pageHeight="1169" math="0" shadow="0">
      <root>
        <mxCell id="kwuxLjlJ-T3TulqdUc1T-0" />
        <mxCell id="kwuxLjlJ-T3TulqdUc1T-1" parent="kwuxLjlJ-T3TulqdUc1T-0" />
        <mxCell id="E4_YpajDaekTR5yFspR3-0" value="&lt;font style=&quot;font-size: 20px&quot;&gt;直播间&lt;/font&gt;" style="rounded=0;whiteSpace=wrap;html=1;" parent="kwuxLjlJ-T3TulqdUc1T-1" vertex="1">
          <mxGeometry x="210" y="140" width="253" height="427" as="geometry" />
        </mxCell>
        <mxCell id="aReo44ZhvXPCOMUb5LMo-0" value="xxx开播，上滑进入直播间" style="rounded=1;whiteSpace=wrap;html=1;" parent="kwuxLjlJ-T3TulqdUc1T-1" vertex="1">
          <mxGeometry x="253.5" y="159" width="166" height="32" as="geometry" />
        </mxCell>
        <mxCell id="aReo44ZhvXPCOMUb5LMo-1" value="xxx开播，下滑进入直播间" style="rounded=1;whiteSpace=wrap;html=1;" parent="kwuxLjlJ-T3TulqdUc1T-1" vertex="1">
          <mxGeometry x="248" y="522" width="166" height="32" as="geometry" />
        </mxCell>
        <mxCell id="aReo44ZhvXPCOMUb5LMo-2" value="3" style="rounded=1;whiteSpace=wrap;html=1;" parent="kwuxLjlJ-T3TulqdUc1T-1" vertex="1">
          <mxGeometry x="521" y="222" width="120" height="60" as="geometry" />
        </mxCell>
        <mxCell id="aReo44ZhvXPCOMUb5LMo-3" value="1" style="rounded=1;whiteSpace=wrap;html=1;" parent="kwuxLjlJ-T3TulqdUc1T-1" vertex="1">
          <mxGeometry x="521" y="282" width="120" height="60" as="geometry" />
        </mxCell>
        <mxCell id="aReo44ZhvXPCOMUb5LMo-4" value="正在观看直播间" style="rounded=1;whiteSpace=wrap;html=1;" parent="kwuxLjlJ-T3TulqdUc1T-1" vertex="1">
          <mxGeometry x="521" y="342" width="120" height="60" as="geometry" />
        </mxCell>
        <mxCell id="aReo44ZhvXPCOMUb5LMo-5" value="2" style="rounded=1;whiteSpace=wrap;html=1;" parent="kwuxLjlJ-T3TulqdUc1T-1" vertex="1">
          <mxGeometry x="521" y="402" width="120" height="60" as="geometry" />
        </mxCell>
        <mxCell id="aReo44ZhvXPCOMUb5LMo-6" value="4" style="rounded=1;whiteSpace=wrap;html=1;" parent="kwuxLjlJ-T3TulqdUc1T-1" vertex="1">
          <mxGeometry x="521" y="462" width="120" height="60" as="geometry" />
        </mxCell>
        <mxCell id="aReo44ZhvXPCOMUb5LMo-7" value="主播队列顺序" style="text;html=1;strokeColor=none;fillColor=none;align=center;verticalAlign=middle;whiteSpace=wrap;rounded=0;" parent="kwuxLjlJ-T3TulqdUc1T-1" vertex="1">
          <mxGeometry x="534" y="189" width="84" height="20" as="geometry" />
        </mxCell>
        <mxCell id="EWEDct_wTRdzMibGNG4o-0" style="edgeStyle=orthogonalEdgeStyle;rounded=0;orthogonalLoop=1;jettySize=auto;html=1;exitX=0;exitY=0.5;exitDx=0;exitDy=0;entryX=1;entryY=0.5;entryDx=0;entryDy=0;" edge="1" parent="kwuxLjlJ-T3TulqdUc1T-1" source="EWEDct_wTRdzMibGNG4o-1" target="EWEDct_wTRdzMibGNG4o-11">
          <mxGeometry relative="1" as="geometry" />
        </mxCell>
        <mxCell id="EWEDct_wTRdzMibGNG4o-1" value="服务器" style="rounded=1;whiteSpace=wrap;html=1;" vertex="1" parent="kwuxLjlJ-T3TulqdUc1T-1">
          <mxGeometry x="1480" y="269" width="120" height="60" as="geometry" />
        </mxCell>
        <mxCell id="EWEDct_wTRdzMibGNG4o-24" style="edgeStyle=orthogonalEdgeStyle;rounded=0;orthogonalLoop=1;jettySize=auto;html=1;exitX=0;exitY=0.5;exitDx=0;exitDy=0;entryX=1;entryY=0.5;entryDx=0;entryDy=0;" edge="1" parent="kwuxLjlJ-T3TulqdUc1T-1" source="EWEDct_wTRdzMibGNG4o-7" target="EWEDct_wTRdzMibGNG4o-19">
          <mxGeometry relative="1" as="geometry" />
        </mxCell>
        <mxCell id="EWEDct_wTRdzMibGNG4o-25" style="edgeStyle=orthogonalEdgeStyle;rounded=0;orthogonalLoop=1;jettySize=auto;html=1;exitX=0;exitY=0.75;exitDx=0;exitDy=0;entryX=1;entryY=0.5;entryDx=0;entryDy=0;" edge="1" parent="kwuxLjlJ-T3TulqdUc1T-1" source="EWEDct_wTRdzMibGNG4o-7" target="EWEDct_wTRdzMibGNG4o-21">
          <mxGeometry relative="1" as="geometry">
            <Array as="points">
              <mxPoint x="1227" y="131" />
              <mxPoint x="1158" y="131" />
              <mxPoint x="1158" y="350" />
            </Array>
          </mxGeometry>
        </mxCell>
        <mxCell id="EWEDct_wTRdzMibGNG4o-26" style="edgeStyle=orthogonalEdgeStyle;rounded=0;orthogonalLoop=1;jettySize=auto;html=1;exitX=0;exitY=0.5;exitDx=0;exitDy=0;" edge="1" parent="kwuxLjlJ-T3TulqdUc1T-1" source="EWEDct_wTRdzMibGNG4o-7" target="EWEDct_wTRdzMibGNG4o-18">
          <mxGeometry relative="1" as="geometry" />
        </mxCell>
        <mxCell id="EWEDct_wTRdzMibGNG4o-27" style="edgeStyle=orthogonalEdgeStyle;rounded=0;orthogonalLoop=1;jettySize=auto;html=1;exitX=0;exitY=0.5;exitDx=0;exitDy=0;entryX=1;entryY=0.5;entryDx=0;entryDy=0;" edge="1" parent="kwuxLjlJ-T3TulqdUc1T-1" source="EWEDct_wTRdzMibGNG4o-7" target="EWEDct_wTRdzMibGNG4o-22">
          <mxGeometry relative="1" as="geometry" />
        </mxCell>
        <mxCell id="EWEDct_wTRdzMibGNG4o-7" value="直播间列表" style="rounded=1;whiteSpace=wrap;html=1;" vertex="1" parent="kwuxLjlJ-T3TulqdUc1T-1">
          <mxGeometry x="1227" y="101" width="120" height="60" as="geometry" />
        </mxCell>
        <mxCell id="EWEDct_wTRdzMibGNG4o-9" style="edgeStyle=orthogonalEdgeStyle;rounded=0;orthogonalLoop=1;jettySize=auto;html=1;exitX=0.5;exitY=0;exitDx=0;exitDy=0;" edge="1" parent="kwuxLjlJ-T3TulqdUc1T-1" source="EWEDct_wTRdzMibGNG4o-11" target="EWEDct_wTRdzMibGNG4o-7">
          <mxGeometry relative="1" as="geometry" />
        </mxCell>
        <mxCell id="EWEDct_wTRdzMibGNG4o-11" value="客户端" style="rounded=1;whiteSpace=wrap;html=1;" vertex="1" parent="kwuxLjlJ-T3TulqdUc1T-1">
          <mxGeometry x="1227" y="269" width="120" height="60" as="geometry" />
        </mxCell>
        <mxCell id="EWEDct_wTRdzMibGNG4o-17" value="关注信息广播" style="text;html=1;strokeColor=none;fillColor=none;align=center;verticalAlign=middle;whiteSpace=wrap;rounded=0;" vertex="1" parent="kwuxLjlJ-T3TulqdUc1T-1">
          <mxGeometry x="1299" y="205" width="83" height="20" as="geometry" />
        </mxCell>
        <mxCell id="EWEDct_wTRdzMibGNG4o-18" value="3" style="rounded=1;whiteSpace=wrap;html=1;" vertex="1" parent="kwuxLjlJ-T3TulqdUc1T-1">
          <mxGeometry x="969" y="140" width="120" height="60" as="geometry" />
        </mxCell>
        <mxCell id="EWEDct_wTRdzMibGNG4o-19" value="1" style="rounded=1;whiteSpace=wrap;html=1;" vertex="1" parent="kwuxLjlJ-T3TulqdUc1T-1">
          <mxGeometry x="969" y="200" width="120" height="60" as="geometry" />
        </mxCell>
        <mxCell id="EWEDct_wTRdzMibGNG4o-20" value="正在观看直播间" style="rounded=1;whiteSpace=wrap;html=1;" vertex="1" parent="kwuxLjlJ-T3TulqdUc1T-1">
          <mxGeometry x="969" y="260" width="120" height="60" as="geometry" />
        </mxCell>
        <mxCell id="EWEDct_wTRdzMibGNG4o-21" value="2" style="rounded=1;whiteSpace=wrap;html=1;" vertex="1" parent="kwuxLjlJ-T3TulqdUc1T-1">
          <mxGeometry x="969" y="320" width="120" height="60" as="geometry" />
        </mxCell>
        <mxCell id="EWEDct_wTRdzMibGNG4o-22" value="4" style="rounded=1;whiteSpace=wrap;html=1;" vertex="1" parent="kwuxLjlJ-T3TulqdUc1T-1">
          <mxGeometry x="969" y="380" width="120" height="60" as="geometry" />
        </mxCell>
        <mxCell id="EWEDct_wTRdzMibGNG4o-23" value="主播队列顺序" style="text;html=1;strokeColor=none;fillColor=none;align=center;verticalAlign=middle;whiteSpace=wrap;rounded=0;" vertex="1" parent="kwuxLjlJ-T3TulqdUc1T-1">
          <mxGeometry x="982" y="107" width="84" height="20" as="geometry" />
        </mxCell>
        <mxCell id="EWEDct_wTRdzMibGNG4o-28" value="推送主播信息" style="text;html=1;strokeColor=none;fillColor=none;align=center;verticalAlign=middle;whiteSpace=wrap;rounded=0;" vertex="1" parent="kwuxLjlJ-T3TulqdUc1T-1">
          <mxGeometry x="1363" y="273" width="80" height="20" as="geometry" />
        </mxCell>
      </root>
    </mxGraphModel>
  </diagram>
  <diagram id="ior_RcHas0SEEnARCVnF" name="Page-3">
    <mxGraphModel dx="1422" dy="761" grid="0" gridSize="10" guides="1" tooltips="1" connect="1" arrows="1" fold="1" page="1" pageScale="1" pageWidth="827" pageHeight="1169" math="0" shadow="0">
      <root>
        <mxCell id="el0wI4LeZYZFKvc2Xfmz-0" />
        <mxCell id="el0wI4LeZYZFKvc2Xfmz-1" parent="el0wI4LeZYZFKvc2Xfmz-0" />
        <mxCell id="el0wI4LeZYZFKvc2Xfmz-2" value="&lt;font style=&quot;font-size: 20px&quot;&gt;直播间&lt;/font&gt;" style="rounded=0;whiteSpace=wrap;html=1;" vertex="1" parent="el0wI4LeZYZFKvc2Xfmz-1">
          <mxGeometry x="210" y="140" width="253" height="427" as="geometry" />
        </mxCell>
        <mxCell id="el0wI4LeZYZFKvc2Xfmz-3" value="xxx直播间触发飞机广播" style="rounded=1;whiteSpace=wrap;html=1;" vertex="1" parent="el0wI4LeZYZFKvc2Xfmz-1">
          <mxGeometry x="253.5" y="159" width="166" height="32" as="geometry" />
        </mxCell>
        <mxCell id="el0wI4LeZYZFKvc2Xfmz-4" value="xxx主播使用了珍爱召集令" style="rounded=1;whiteSpace=wrap;html=1;" vertex="1" parent="el0wI4LeZYZFKvc2Xfmz-1">
          <mxGeometry x="248" y="522" width="166" height="32" as="geometry" />
        </mxCell>
        <mxCell id="el0wI4LeZYZFKvc2Xfmz-5" value="4" style="rounded=1;whiteSpace=wrap;html=1;" vertex="1" parent="el0wI4LeZYZFKvc2Xfmz-1">
          <mxGeometry x="521" y="222" width="120" height="60" as="geometry" />
        </mxCell>
        <mxCell id="el0wI4LeZYZFKvc2Xfmz-6" value="1" style="rounded=1;whiteSpace=wrap;html=1;" vertex="1" parent="el0wI4LeZYZFKvc2Xfmz-1">
          <mxGeometry x="521" y="282" width="120" height="60" as="geometry" />
        </mxCell>
        <mxCell id="el0wI4LeZYZFKvc2Xfmz-7" value="正在观看直播间" style="rounded=1;whiteSpace=wrap;html=1;" vertex="1" parent="el0wI4LeZYZFKvc2Xfmz-1">
          <mxGeometry x="521" y="342" width="120" height="60" as="geometry" />
        </mxCell>
        <mxCell id="el0wI4LeZYZFKvc2Xfmz-8" value="3" style="rounded=1;whiteSpace=wrap;html=1;" vertex="1" parent="el0wI4LeZYZFKvc2Xfmz-1">
          <mxGeometry x="521" y="402" width="120" height="60" as="geometry" />
        </mxCell>
        <mxCell id="el0wI4LeZYZFKvc2Xfmz-9" value="2" style="rounded=1;whiteSpace=wrap;html=1;" vertex="1" parent="el0wI4LeZYZFKvc2Xfmz-1">
          <mxGeometry x="521" y="462" width="120" height="60" as="geometry" />
        </mxCell>
        <mxCell id="el0wI4LeZYZFKvc2Xfmz-10" value="业务等级权重排序" style="text;html=1;strokeColor=none;fillColor=none;align=center;verticalAlign=middle;whiteSpace=wrap;rounded=0;" vertex="1" parent="el0wI4LeZYZFKvc2Xfmz-1">
          <mxGeometry x="534" y="189" width="101" height="20" as="geometry" />
        </mxCell>
      </root>
    </mxGraphModel>
  </diagram>
  <diagram id="gX0LA1J6YRX5F8Ad2Jj4" name="Page-4">
    <mxGraphModel dx="1422" dy="761" grid="0" gridSize="10" guides="1" tooltips="1" connect="1" arrows="1" fold="1" page="1" pageScale="1" pageWidth="827" pageHeight="1169" math="0" shadow="0">
      <root>
        <mxCell id="EGc8ZlEc-ZprjsAm4x-p-0" />
        <mxCell id="EGc8ZlEc-ZprjsAm4x-p-1" parent="EGc8ZlEc-ZprjsAm4x-p-0" />
        <mxCell id="HE1KTolbzpSCciNmbQ4z-0" value="&lt;font style=&quot;font-size: 20px&quot;&gt;直播间&lt;/font&gt;" style="rounded=0;whiteSpace=wrap;html=1;" vertex="1" parent="EGc8ZlEc-ZprjsAm4x-p-1">
          <mxGeometry x="210" y="140" width="253" height="427" as="geometry" />
        </mxCell>
        <mxCell id="HE1KTolbzpSCciNmbQ4z-1" value="xxx一个月内观看时长最高" style="rounded=1;whiteSpace=wrap;html=1;" vertex="1" parent="EGc8ZlEc-ZprjsAm4x-p-1">
          <mxGeometry x="253.5" y="159" width="166" height="32" as="geometry" />
        </mxCell>
        <mxCell id="HE1KTolbzpSCciNmbQ4z-2" value="xxx一个月内观看次数最多" style="rounded=1;whiteSpace=wrap;html=1;" vertex="1" parent="EGc8ZlEc-ZprjsAm4x-p-1">
          <mxGeometry x="248" y="522" width="166" height="32" as="geometry" />
        </mxCell>
        <mxCell id="HE1KTolbzpSCciNmbQ4z-3" value="3" style="rounded=1;whiteSpace=wrap;html=1;" vertex="1" parent="EGc8ZlEc-ZprjsAm4x-p-1">
          <mxGeometry x="521" y="222" width="120" height="60" as="geometry" />
        </mxCell>
        <mxCell id="HE1KTolbzpSCciNmbQ4z-4" value="1" style="rounded=1;whiteSpace=wrap;html=1;" vertex="1" parent="EGc8ZlEc-ZprjsAm4x-p-1">
          <mxGeometry x="521" y="282" width="120" height="60" as="geometry" />
        </mxCell>
        <mxCell id="HE1KTolbzpSCciNmbQ4z-5" value="正在观看直播间" style="rounded=1;whiteSpace=wrap;html=1;" vertex="1" parent="EGc8ZlEc-ZprjsAm4x-p-1">
          <mxGeometry x="521" y="342" width="120" height="60" as="geometry" />
        </mxCell>
        <mxCell id="HE1KTolbzpSCciNmbQ4z-6" value="4" style="rounded=1;whiteSpace=wrap;html=1;" vertex="1" parent="EGc8ZlEc-ZprjsAm4x-p-1">
          <mxGeometry x="521" y="402" width="120" height="60" as="geometry" />
        </mxCell>
        <mxCell id="HE1KTolbzpSCciNmbQ4z-7" value="2" style="rounded=1;whiteSpace=wrap;html=1;" vertex="1" parent="EGc8ZlEc-ZprjsAm4x-p-1">
          <mxGeometry x="521" y="462" width="120" height="60" as="geometry" />
        </mxCell>
        <mxCell id="HE1KTolbzpSCciNmbQ4z-8" value="观看时长权重排序" style="text;html=1;strokeColor=none;fillColor=none;align=center;verticalAlign=middle;whiteSpace=wrap;rounded=0;" vertex="1" parent="EGc8ZlEc-ZprjsAm4x-p-1">
          <mxGeometry x="534" y="189" width="101" height="20" as="geometry" />
        </mxCell>
      </root>
    </mxGraphModel>
  </diagram>
  <diagram id="VAueTSi4xIob9KNHc3Zl" name="Page-5">
    <mxGraphModel dx="1422" dy="761" grid="0" gridSize="10" guides="1" tooltips="1" connect="1" arrows="1" fold="1" page="1" pageScale="1" pageWidth="827" pageHeight="1169" math="0" shadow="0">
      <root>
        <mxCell id="8e5JIGFpdh_dKZbRxNvZ-0" />
        <mxCell id="8e5JIGFpdh_dKZbRxNvZ-1" parent="8e5JIGFpdh_dKZbRxNvZ-0" />
        <mxCell id="dhVBAaE9LUy3VwyDGSte-0" value="&lt;font style=&quot;font-size: 20px&quot;&gt;直播间&lt;/font&gt;" style="rounded=0;whiteSpace=wrap;html=1;" vertex="1" parent="8e5JIGFpdh_dKZbRxNvZ-1">
          <mxGeometry x="287" y="141" width="253" height="427" as="geometry" />
        </mxCell>
        <mxCell id="dhVBAaE9LUy3VwyDGSte-9" style="edgeStyle=orthogonalEdgeStyle;rounded=0;orthogonalLoop=1;jettySize=auto;html=1;exitX=1;exitY=0.5;exitDx=0;exitDy=0;" edge="1" parent="8e5JIGFpdh_dKZbRxNvZ-1" source="dhVBAaE9LUy3VwyDGSte-1">
          <mxGeometry relative="1" as="geometry">
            <mxPoint x="575" y="176" as="targetPoint" />
          </mxGeometry>
        </mxCell>
        <mxCell id="dhVBAaE9LUy3VwyDGSte-1" value="xxx一个月内观看时长最高" style="rounded=1;whiteSpace=wrap;html=1;" vertex="1" parent="8e5JIGFpdh_dKZbRxNvZ-1">
          <mxGeometry x="330.5" y="160" width="166" height="32" as="geometry" />
        </mxCell>
        <mxCell id="dhVBAaE9LUy3VwyDGSte-11" style="edgeStyle=orthogonalEdgeStyle;rounded=0;orthogonalLoop=1;jettySize=auto;html=1;exitX=0;exitY=0.5;exitDx=0;exitDy=0;" edge="1" parent="8e5JIGFpdh_dKZbRxNvZ-1" source="dhVBAaE9LUy3VwyDGSte-2">
          <mxGeometry relative="1" as="geometry">
            <mxPoint x="212" y="539" as="targetPoint" />
          </mxGeometry>
        </mxCell>
        <mxCell id="dhVBAaE9LUy3VwyDGSte-2" value="xxx一个月内观看次数最多" style="rounded=1;whiteSpace=wrap;html=1;" vertex="1" parent="8e5JIGFpdh_dKZbRxNvZ-1">
          <mxGeometry x="325" y="523" width="166" height="32" as="geometry" />
        </mxCell>
        <mxCell id="dhVBAaE9LUy3VwyDGSte-10" value="右滑去掉上滑的主播列表&lt;br&gt;使用服务器推荐列表" style="text;html=1;strokeColor=none;fillColor=none;align=center;verticalAlign=middle;whiteSpace=wrap;rounded=0;" vertex="1" parent="8e5JIGFpdh_dKZbRxNvZ-1">
          <mxGeometry x="574" y="162" width="170" height="30" as="geometry" />
        </mxCell>
        <mxCell id="dhVBAaE9LUy3VwyDGSte-12" value="左滑去掉单个主播的直播间短时间内不再提醒" style="text;html=1;strokeColor=none;fillColor=none;align=center;verticalAlign=middle;whiteSpace=wrap;rounded=0;" vertex="1" parent="8e5JIGFpdh_dKZbRxNvZ-1">
          <mxGeometry x="78" y="529" width="133" height="20" as="geometry" />
        </mxCell>
      </root>
    </mxGraphModel>
  </diagram>
</mxfile>
